# xmcd
#
# Track frame offsets:
#	150
#	18329
#	51223
#	82185
#	105405
#	135635
#	170639
#	196065
#	203721
#	235849
#
# Disc length: 3751 seconds
#
# Revision: 1
# Processed by: cddbd v1.5.2PL0 Copyright (c) Steve Scherf et al.
# Submitted via: audiograbber 1.83.01
#
DISCID=7f0ea50a
DTITLE=Móra Ferenc meséi - Mese
DYEAR=1900
DGENRE=
TTITLE0=Dióbél kiráykisasszony
TTITLE1=A bársonyosi kanászok
TTITLE2=Mire Anyu fölébred
TTITLE3=A cinegefészek
TTITLE4=Petykó meg Matykó
TTITLE5=A Viola meg a Gabó
TTITLE6=Szappanbuborékok
TTITLE7=Sétálni megy Panka
TTITLE8=Sündisznócska lovagol
TTITLE9=Kótyonfitty király almája
EXTD=
EXTT0=
EXTT1=
EXTT2=
EXTT3=
EXTT4=
EXTT5=
EXTT6=
EXTT7=
EXTT8=
EXTT9=
PLAYORDER=
